<?xml version="1.0" encoding="UTF-8"?>
<svg version="1.1" xmlns="http://www.w3.org/2000/svg" width="1910" height="700">
<path d="M0 0 C1.07048584 -0.01945679 1.07048584 -0.01945679 2.16259766 -0.03930664 C10.97372617 -0.05508965 20.54547703 1.75389439 27.1015625 8.015625 C30.52113212 11.82808135 33.43707172 15.86539842 36.1875 20.1875 C37.05375 21.1775 37.05375 21.1775 37.9375 22.1875 C39.76589885 25.11293816 39.8085911 26.806004 39.1875 30.1875 C37.35801213 32.39093979 35.62731521 33.56095652 33.1875 35.1875 C32.1975 35.1875 31.2075 35.1875 30.1875 35.1875 C30.0225 35.909375 29.8575 36.63125 29.6875 37.375 C27.51421907 41.44990174 24.15735789 43.0179265 20.1875 45.1875 C21.18330078 45.78498047 21.18330078 45.78498047 22.19921875 46.39453125 C24.86197917 47.9921875 27.52473958 49.58984375 30.1875 51.1875 C31.08082031 51.70699219 31.97414063 52.22648437 32.89453125 52.76171875 C35.1875 54.1875 35.1875 54.1875 37.1875 56.1875 C36.87426972 57.85806149 36.53415557 59.52355325 36.1875 61.1875 C35.77742467 64.60292196 35.58085351 67.78915621 36.1875 71.1875 C38.90902236 74.08049854 38.90902236 74.08049854 42.1875 76.1875 C45.58073427 80.39979081 46.35953628 84.87895197 46.1875 90.1875 C45.55748454 93.04464018 44.7501887 95.8118609 43.921875 98.6171875 C42.91100971 102.15521602 42.41802658 104.54998928 43.1875 108.1875 C48.59185323 114.46416471 55.99996252 118.04680772 63.25 121.75 C72.73120836 126.60991957 80.30022822 131.02551786 86.5625 139.8125 C87.56410156 141.19308594 87.56410156 141.19308594 88.5859375 142.6015625 C90.02109925 144.91882367 90.90138433 146.49567706 91.1875 149.1875 C89.875 151.375 89.875 151.375 87.1875 153.1875 C83.86088405 153.90886296 80.58483552 154.09678343 77.1875 154.1875 C76.54055176 154.20868896 75.89360352 154.22987793 75.22705078 154.25170898 C69.18513045 154.3650369 63.40182651 153.66464351 57.4375 152.75 C56.51839844 152.61529297 55.59929687 152.48058594 54.65234375 152.34179688 C50.47182443 151.72167643 46.32795213 151.03900096 42.1875 150.1875 C41.28040771 151.30344172 40.38770125 152.43107221 39.5 153.5625 C39.00113281 154.18898437 38.50226563 154.81546875 37.98828125 155.4609375 C32.76748759 163.36574005 30.32742721 170.46504947 29.375 179.875 C29.25302246 180.92212158 29.13104492 181.96924316 29.00537109 183.0480957 C28.22699626 190.19714381 28.02379888 197.08251714 28.5703125 204.26171875 C28.04149783 208.30337372 26.26167149 209.63240259 23.1875 212.1875 C21.6715625 213.1775 21.6715625 213.1775 20.125 214.1875 C16.12153526 216.91326323 13.72284125 219.58147625 12.1875 224.1875 C12.11150286 226.27038465 12.05087981 228.35385049 12 230.4375 C11.59537738 235.71518633 11.01974628 239.03344037 7.19140625 242.76953125 C3.1933728 245.59854907 -1.29956903 247.34400404 -5.8125 249.1875 C-12.32563349 252.10718053 -15.58128967 256.25007369 -19.89453125 261.921875 C-20.52746094 262.66953125 -21.16039062 263.4171875 -21.8125 264.1875 C-22.4725 264.1875 -23.1325 264.1875 -23.8125 264.1875 C-24.4725 265.5075 -25.1325 266.8275 -25.8125 268.1875 C-25.28140625 268.47882813 -24.7503125 268.77015625 -24.203125 269.0703125 C-18.77360773 272.22101778 -14.99105027 275.07712405 -13.1796875 281.39453125 C-12.37627899 285.79867064 -12.37627899 285.79867064 -12.8125 288.1875 C-13.59367187 288.96609375 -14.37484375 289.7446875 -15.1796875 290.546875 C-18.24073612 293.61700685 -18.932529 295.71232925 -20 299.875 C-20.48533203 301.71578125 -20.48533203 301.71578125 -20.98046875 303.59375 C-21.87152793 307.44245634 -22.59860093 311.28412567 -23.125 315.19921875 C-24.07962114 317.96002649 -25.28681187 318.76788909 -27.8125 320.1875 C-30.390625 320.69921875 -30.390625 320.69921875 -33.0625 320.875 C-33.95453125 320.94074219 -34.8465625 321.00648438 -35.765625 321.07421875 C-36.44109375 321.11160156 -37.1165625 321.14898437 -37.8125 321.1875 C-37.70808594 321.79335938 -37.60367187 322.39921875 -37.49609375 323.0234375 C-37.07919568 327.32476677 -37.1292986 330.13868515 -39.53515625 333.83203125 C-41.85562249 336.42315221 -44.26325871 338.82177217 -46.8125 341.1875 C-47.48152344 341.83847656 -48.15054687 342.48945313 -48.83984375 343.16015625 C-56.24719643 350.05247827 -63.19681103 354.87740644 -73.5625 354.7890625 C-74.305 354.92054688 -75.0475 355.05203125 -75.8125 355.1875 C-76.99996681 357.0675822 -76.99996681 357.0675822 -77.8125 359.1875 C-84.92756705 364.29178724 -94.07618399 366.72814403 -102.8125 366.1875 C-105.1875 364.6875 -105.1875 364.6875 -106.8125 363.1875 C-106.34970508 358.55955081 -105.91359549 355.32602141 -103.8125 351.1875 C-103.39098115 349.61591122 -103.0156166 348.03120918 -102.6875 346.4375 C-102.43613281 345.23867188 -102.43613281 345.23867188 -102.1796875 344.015625 C-102.05851563 343.41234375 -101.93734375 342.8090625 -101.8125 342.1875 C-105.23185352 338.40178718 -107.98651619 337.89956686 -112.875 337.625 C-113.89722656 337.60308594 -114.91945313 337.58117187 -115.97265625 337.55859375 C-119.1789562 337.1396137 -120.33211569 336.15397804 -122.8125 334.1875 C-126.49506285 334.3190201 -128.90998237 334.45420443 -131.8125 336.8125 C-133.8125 338.1875 -133.8125 338.1875 -137.25 338.125 C-141.11460092 337.10799976 -143.04171616 336.03977748 -145.8125 333.1875 C-146.625 330.9375 -146.625 330.9375 -146.8125 329.1875 C-147.699375 329.868125 -148.58625 330.54875 -149.5 331.25 C-152.8125 333.1875 -152.8125 333.1875 -155.4375 333.25 C-158.57981072 331.84422942 -159.93721878 330.03514925 -161.8125 327.1875 C-161.8125 326.5275 -161.8125 325.8675 -161.8125 325.1875 C-162.4725 325.1875 -163.1325 325.1875 -163.8125 325.1875 C-164.8025 323.7025 -164.8025 323.7025 -165.8125 322.1875 C-165.91046875 322.94675781 -166.0084375 323.70601563 -166.109375 324.48828125 C-166.33367187 325.97908203 -166.33367187 325.97908203 -166.5625 327.5 C-166.70171875 328.48613281 -166.8409375 329.47226562 -166.984375 330.48828125 C-167.97742986 333.725078 -168.87448514 334.58110339 -171.8125 336.1875 C-180.82347705 338.56741531 -191.57833291 337.61113757 -200.65625 336.11328125 C-203.51571799 336.21170497 -204.65552911 337.38851378 -206.8125 339.1875 C-210.63008872 340.03585305 -212.80217387 338.76704834 -216 336.8125 C-221.54573453 333.18603497 -221.54573453 333.18603497 -222.6640625 329 C-222.91929687 327.741875 -223.17453125 326.48375 -223.4375 325.1875 C-223.82808594 323.3003125 -223.82808594 323.3003125 -224.2265625 321.375 C-224.8125 318.1875 -224.8125 318.1875 -224.8125 316.1875 C-225.43398926 316.47842529 -226.05547852 316.76935059 -226.69580078 317.0690918 C-234.87523226 320.50926882 -241.92468008 320.52986564 -250.6875 320 C-251.97914063 319.94263672 -253.27078125 319.88527344 -254.6015625 319.82617188 C-259.76831427 319.57694578 -264.75537304 319.3243233 -269.8125 318.1875 C-270.1425 316.8675 -270.4725 315.5475 -270.8125 314.1875 C-272.029375 314.435 -273.24625 314.6825 -274.5 314.9375 C-277.79506776 315.33919554 -278.59785253 315.30674859 -281.625 313.625 C-286.81053019 307.84683779 -287.37986899 302.18738902 -287.875 294.75 C-288.31032838 288.62523137 -288.88022785 283.0613273 -290.8125 277.1875 C-291.54877391 274.85639957 -292.27796093 272.52304877 -293 270.1875 C-293.36480469 269.0325 -293.72960937 267.8775 -294.10546875 266.6875 C-295.0284893 262.11829332 -294.85543966 258.2620018 -292.73828125 254.05078125 C-290.90343153 250.35785587 -292.05654151 246.10528489 -292.8125 242.1875 C-293.64597202 239.7090174 -294.63901331 237.53447337 -295.8125 235.1875 C-300.88775299 235.63672202 -303.80952108 238.15763303 -307.625 241.25 C-308.5212207 241.95866211 -308.5212207 241.95866211 -309.43554688 242.68164062 C-310.90093126 243.84222506 -312.35760876 245.01378832 -313.8125 246.1875 C-315.72631836 245.47583008 -315.72631836 245.47583008 -317.8125 244.1875 C-318.67797852 242.11206055 -318.67797852 242.11206055 -319.19140625 239.57421875 C-319.39056641 238.65576172 -319.58972656 237.73730469 -319.79492188 236.79101562 C-320.08206055 235.34758789 -320.08206055 235.34758789 -320.375 233.875 C-321.99053818 225.61305438 -321.99053818 225.61305438 -325.8125 218.1875 C-325.8125 217.5275 -325.8125 216.8675 -325.8125 216.1875 C-326.8025 215.8575 -327.7925 215.5275 -328.8125 215.1875 C-332.36030807 211.17997595 -334.75083575 206.68040107 -334.453125 201.2578125 C-333.34441733 197.67479381 -330.77792681 195.17444909 -328.38671875 192.3515625 C-326.52648232 190.12039479 -326.52648232 190.12039479 -326.125 186.5 C-327.64682136 179.16758798 -332.01139801 176.20364753 -337.8125 172.1875 C-337.8125 171.5275 -337.8125 170.8675 -337.8125 170.1875 C-338.4725 170.1875 -339.1325 170.1875 -339.8125 170.1875 C-341.61788027 165.55536895 -342.16625164 161.36589274 -342.125 156.4375 C-342.11936035 155.73085205 -342.1137207 155.0242041 -342.10791016 154.29614258 C-341.88573631 144.67337545 -338.89097681 138.05309584 -334.140625 129.84375 C-332.86802777 127.29855553 -332.37342697 125.41587523 -332 122.625 C-330.541544 114.25015473 -322.15133702 108.22975672 -315.8125 103.1875 C-314.966875 102.259375 -314.12125 101.33125 -313.25 100.375 C-310.8125 98.1875 -310.8125 98.1875 -308.0625 97.8125 C-305.8125 98.1875 -305.8125 98.1875 -304.8125 99.1875 C-304.36429285 102.27598623 -303.99399574 105.36343411 -303.65039062 108.46484375 C-303.18524961 112.31454742 -302.70116411 115.77169824 -300.8125 119.1875 C-298.98594759 120.30178057 -298.98594759 120.30178057 -296.8125 121.1875 C-295.054498 122.54683698 -293.32793767 123.94728458 -291.625 125.375 C-287.34387037 128.9330434 -283.01107805 132.39545928 -278.58984375 135.77734375 C-276.8125 137.1875 -276.8125 137.1875 -274.8125 139.1875 C-270.07809739 139.76486617 -266.53482428 138.49086723 -262.171875 136.90234375 C-259.7935944 136.18177198 -257.72357181 135.95323771 -255.25 135.8125 C-251.66070073 135.5387926 -249.72496554 134.66178209 -246.8125 132.5625 C-243.01433434 129.96019244 -240.58621588 129.78788267 -236.10546875 130.59765625 C-232.26187343 131.5863835 -228.54218114 132.83686179 -224.8125 134.1875 C-218.43548038 136.38647228 -214.0003571 136.71501486 -207.8125 133.75 C-203.58815548 130.14170572 -200.85878129 125.79827417 -197.8125 121.1875 C-192.76408398 113.63950239 -192.76408398 113.63950239 -189.3125 112 C-183.27859021 112.45254323 -178.45185001 116.73001346 -173.9375 120.4375 C-173.34453125 120.88996094 -172.7515625 121.34242188 -172.140625 121.80859375 C-168.85079907 124.51474089 -167.85716849 125.73716871 -167.4296875 130.046875 C-167.55601562 131.08328125 -167.68234375 132.1196875 -167.8125 133.1875 C-167.26722656 132.83816406 -166.72195313 132.48882812 -166.16015625 132.12890625 C-160.93356822 128.97508475 -156.05575554 126.29124146 -149.8125 127.1875 C-146.83149102 128.48467545 -144.12396586 130.00062601 -141.34375 131.68359375 C-138.59471239 133.31689542 -135.89710705 134.35382242 -132.8125 135.1875 C-132.48378906 134.11822266 -132.48378906 134.11822266 -132.1484375 133.02734375 C-129.68491324 125.58669935 -126.93981234 120.26834839 -120.609375 115.54296875 C-117.09036551 113.837527 -113.8382677 113.62855442 -110 113.5 C-109.30712891 113.46583984 -108.61425781 113.43167969 -107.90039062 113.39648438 C-106.20497151 113.31463656 -104.50876542 113.24937635 -102.8125 113.1875 C-103.04453125 111.8571875 -103.04453125 111.8571875 -103.28125 110.5 C-105.10002233 99.15941958 -105.10002233 99.15941958 -102.63671875 95.38671875 C-98.47343102 91.54139094 -93.45836082 89.6493125 -88.30078125 87.46484375 C-85.54421218 86.25570656 -85.54421218 86.25570656 -83.375 83.25 C-77.52608343 76.25983141 -67.18723356 73.33728917 -58.8125 70.1875 C-59.33491086 66.08693257 -60.44750616 64.0122439 -63.25 61 C-63.86746094 60.32582031 -64.48492188 59.65164062 -65.12109375 58.95703125 C-66.33627066 57.68572608 -67.56894225 56.43105775 -68.8125 55.1875 C-68.70713195 52.13182642 -67.62499887 50.96785582 -65.625 48.625 C-62.47438754 45.8944692 -59.14531183 43.1875 -54.8125 43.1875 C-54.86148437 42.31351563 -54.91046875 41.43953125 -54.9609375 40.5390625 C-54.80068699 36.92077464 -54.01356624 34.79662436 -52.4375 31.5625 C-51.77621094 30.18191406 -51.77621094 30.18191406 -51.1015625 28.7734375 C-50.30366415 27.17280504 -49.48354528 25.58278787 -48.62890625 24.01171875 C-47.12107281 20.64254068 -48.69930638 17.52708085 -49.8125 14.1875 C-50.14852954 11.14670811 -50.22030757 8.22340078 -49.8125 5.1875 C-47.25756774 2.15943214 -44.60640316 1.81735114 -40.8125 1.1875 C-38.6871895 1.04300638 -36.5587429 0.94142337 -34.4296875 0.87109375 C-33.18856201 0.82895752 -31.94743652 0.78682129 -30.66870117 0.7434082 C-29.35490479 0.7043335 -28.0411084 0.66525879 -26.6875 0.625 C-25.68222763 0.59422867 -25.68222763 0.59422867 -24.65664673 0.56283569 C-16.43956518 0.31294761 -8.2207223 0.07575526 0 0 Z " fill="#6C6D70" transform="translate(911.8125,67.8125)"/>
<path d="M0 0 C1.43279297 -0.03480469 1.43279297 -0.03480469 2.89453125 -0.0703125 C9.93492722 -0.01236685 14.11739515 1.79937071 19.125 6.75 C19.82625 7.636875 20.5275 8.52375 21.25 9.4375 C23.96878881 12.79067287 26.75477562 14.44842076 31.08984375 15 C35.4874785 15.12723717 39.61709573 14.53501463 43.9375 13.75 C54.35865384 11.93189731 62.62931954 12.53304177 72.7265625 15.75390625 C75.87651904 16.67716937 78.81291644 17.1663179 82.0625 17.5625 C86.81161784 18.39237522 89.45884099 19.88345388 92.65234375 23.4921875 C94.38162638 26.1434484 95.43946836 28.7923127 96.5625 31.75 C99.40363903 39.19285273 103.5473514 43.05532435 110.6875 46.4375 C111.821875 46.870625 112.95625 47.30375 114.125 47.75 C120.82286096 51.14572193 120.82286096 51.14572193 122.125 53.75 C122.45076056 59.17934261 121.57766213 63.57489117 120.125 68.75 C120.85460937 69.01031006 121.58421875 69.27062012 122.3359375 69.53881836 C125.2016512 70.78328664 127.29373734 72.20892418 129.75 74.12890625 C130.61471924 74.79849365 131.47943848 75.46808105 132.37036133 76.15795898 C133.27939209 76.86895752 134.18842285 77.57995605 135.125 78.3125 C137.0232958 79.77531301 138.92303034 81.23626093 140.82421875 82.6953125 C141.73993652 83.39817383 142.6556543 84.10103516 143.59912109 84.82519531 C150.56473816 90.13322981 157.64576708 95.00658482 165.36303711 99.15966797 C176.24894557 105.03231275 181.80441792 110.00832701 185.49609375 122.2109375 C186.125 124.75 186.125 124.75 186.125 126.75 C186.99125 126.9975 187.8575 127.245 188.75 127.5 C194.52922026 129.64045195 198.72196333 132.58677194 202.125 137.75 C202.5375 138.9875 202.95 140.225 203.375 141.5 C206.80307477 151.21895667 216.29565419 157.66210795 224.125 163.75 C224.03798828 162.71939453 224.03798828 162.71939453 223.94921875 161.66796875 C223.81366141 158.96069504 223.788098 156.44089671 224.125 153.75 C226.1875 151.5 226.1875 151.5 229.125 150.75 C234.7471247 151.56776359 238.14374806 153.76874806 242.125 157.75 C244.9230819 161.82720505 246.29692034 165.22245243 247.5 170 C248.62746225 173.94672623 248.62746225 173.94672623 251.625 176.75 C254.64136417 177.61181833 257.47275809 178.14183048 260.5625 178.625 C265.76461336 179.49555775 269.48660281 180.84132188 273.125 184.75 C275.49400046 188.77730078 276.25384405 192.23491 276.625 196.8125 C277.00943752 201.20039034 277.39495022 204.13669883 280.125 207.75 C286.5364104 212.95927095 293.20830205 215.65642709 301.09765625 217.8515625 C306.3238823 219.40257152 311.56820585 221.44951253 315.125 225.75 C315.125 229.94541691 314.37773689 231.46644153 311.5625 234.625 C310.758125 235.32625 309.95375 236.0275 309.125 236.75 C310.77267247 236.46890887 312.41813145 236.17481474 314.0625 235.875 C315.43728516 235.63136719 315.43728516 235.63136719 316.83984375 235.3828125 C317.97099609 235.06957031 317.97099609 235.06957031 319.125 234.75 C320.65945094 231.68109813 319.67484289 229.04905734 319.125 225.75 C321.125 224.51953125 321.125 224.51953125 324.125 223.75 C326.99488547 224.59061944 329.51327791 225.99912538 332.125 227.4375 C332.82367188 227.80294922 333.52234375 228.16839844 334.2421875 228.54492188 C346.01542526 234.75363877 346.01542526 234.75363877 348.125 239.75 C348.64314533 244.41330801 348.61879347 246.70068887 346.625 250.9375 C343.53434584 254.41448593 340.17601603 256.52784072 336.125 258.75 C336.764375 259.430625 337.40375 260.11125 338.0625 260.8125 C340.49583036 264.27815233 341.04697514 266.5366573 341.125 270.75 C340.015625 272.44921875 340.015625 272.44921875 338.125 273.75 C335.20703125 274.04296875 335.20703125 274.04296875 331.9375 273.9375 C330.85082031 273.91042969 329.76414062 273.88335937 328.64453125 273.85546875 C327.39736328 273.80326172 327.39736328 273.80326172 326.125 273.75 C327.03401174 275.3377405 327.95257924 276.92001197 328.875 278.5 C329.38546875 279.38171875 329.8959375 280.2634375 330.421875 281.171875 C332.84612381 284.84160943 334.65708406 287.25243637 338.90234375 288.69140625 C340.46662109 288.99884766 340.46662109 288.99884766 342.0625 289.3125 C343.20976562 289.55484375 344.35703125 289.7971875 345.5390625 290.046875 C347.88566143 290.50699244 350.23459673 290.95538811 352.5859375 291.390625 C359.84305254 292.84543128 364.72982332 294.65076128 370.125 299.75 C371.22714844 300.7709375 371.22714844 300.7709375 372.3515625 301.8125 C379.03522772 308.23637611 379.03522772 308.23637611 379.25 314.25 C379.125 317.75 379.125 317.75 378.125 320.75 C377.135 321.41 376.145 322.07 375.125 322.75 C376.40799354 327.4887987 378.12279519 330.27260592 381.5 333.8125 C391.69291574 344.60199107 391.69291574 344.60199107 392.4375 351.75 C392.08439229 355.13983399 391.07270877 356.99074591 389.125 359.75 C390.98125 359.316875 390.98125 359.316875 392.875 358.875 C393.57109375 358.71257812 394.2671875 358.55015625 394.984375 358.3828125 C397.15674648 357.81628873 397.15674648 357.81628873 399.125 356.69921875 C403.84442195 354.45933685 409.53124226 355.32463057 414.375 356.875 C420.18052411 359.36308176 422.72712107 363.59212272 425.0625 369.1875 C427.76253043 375.60948473 431.96300989 379.81609326 437.1875 384.3125 C445.77363184 391.71206468 445.77363184 391.71206468 446.75 397.375 C446.125 400.75 446.125 400.75 444.25 402.875 C439.99650349 405.42709791 435.60591746 407.62700221 431.125 409.75 C431.52332031 410.28109375 431.92164063 410.8121875 432.33203125 411.359375 C433.9296875 413.48958333 435.52734375 415.61979167 437.125 417.75 C437.95837891 418.77480469 437.95837891 418.77480469 438.80859375 419.8203125 C440.65289322 422.52382567 440.40308351 424.5520396 440.125 427.75 C439.795 428.41 439.465 429.07 439.125 429.75 C438.465 429.75 437.805 429.75 437.125 429.75 C437.09782308 431.81242617 437.0785242 433.87495703 437.0625 435.9375 C437.04509766 437.66033203 437.04509766 437.66033203 437.02734375 439.41796875 C437.02782526 442.61878428 437.02782526 442.61878428 437.61328125 445.18359375 C438.30649862 448.66026408 438.34860232 452.09431008 438.375 455.625 C438.395625 456.30691406 438.41625 456.98882812 438.4375 457.69140625 C438.47615853 462.76533823 437.457465 466.23226439 435.125 470.75 C434.465 471.41 433.805 472.07 433.125 472.75 C433.36727738 476.02074466 433.61552585 478.79378545 435.171875 481.71484375 C436.90785345 485.42158463 436.16802542 488.89453105 435.125 492.75 C431.83564955 499.57540219 426.213124 506.27125834 420.125 510.75 C417.47265625 511.18359375 417.47265625 511.18359375 415.125 510.75 C412.41641367 506.68712051 412.74640634 503.2551687 412.56640625 498.46484375 C412.42074219 497.56894531 412.27507812 496.67304688 412.125 495.75 C411.135 495.09 410.145 494.43 409.125 493.75 C409.00382812 494.37648438 408.88265625 495.00296875 408.7578125 495.6484375 C408.59023438 496.46570313 408.42265625 497.28296875 408.25 498.125 C408.08757812 498.93710937 407.92515625 499.74921875 407.7578125 500.5859375 C407.125 502.75 407.125 502.75 405.125 504.75 C401.12691064 504.46066459 399.02138118 503.18615997 396.125 500.5 C395.444375 499.87480469 394.76375 499.24960937 394.0625 498.60546875 C391.71135076 496.35386413 389.39131577 494.08713814 387.125 491.75 C387.17140625 492.58144531 387.2178125 493.41289062 387.265625 494.26953125 C387.30171875 495.35621094 387.3378125 496.44289063 387.375 497.5625 C387.42140625 498.64144531 387.4678125 499.72039062 387.515625 500.83203125 C387.125 503.75 387.125 503.75 385.3671875 505.5703125 C381.59866575 507.55305391 378.37756272 508.17058313 374.125 507.75 C363.72851897 503.66743909 355.66929478 494.77366114 348.75 486.3125 C339.92551347 475.5917534 328.76368508 467.90801346 317.51953125 459.92578125 C308.83655928 453.68372024 301.1005829 447.041949 293.5625 439.4375 C292.64919922 438.53193359 291.73589844 437.62636719 290.79492188 436.69335938 C289.93318359 435.82904297 289.07144531 434.96472656 288.18359375 434.07421875 C287.40298584 433.29135498 286.62237793 432.50849121 285.81811523 431.7019043 C284.125 429.75 284.125 429.75 284.125 427.75 C283.465 427.75 282.805 427.75 282.125 427.75 C280.47982055 425.46720073 278.94644126 423.18309139 277.4375 420.8125 C270.55270241 410.22983025 270.55270241 410.22983025 262.1875 400.8125 C261.506875 400.131875 260.82625 399.45125 260.125 398.75 C260.125 398.09 260.125 397.43 260.125 396.75 C259.135 396.42 258.145 396.09 257.125 395.75 C255.62803472 394.05058799 254.19874919 392.29087114 252.8125 390.5 C250.23733495 387.25579697 247.82108504 384.25557535 244.5625 381.6875 C243.758125 381.048125 242.95375 380.40875 242.125 379.75 C242.125 379.09 242.125 378.43 242.125 377.75 C241.135 377.42 240.145 377.09 239.125 376.75 C239.125 376.09 239.125 375.43 239.125 374.75 C238.2896875 374.41548828 238.2896875 374.41548828 237.4375 374.07421875 C228.5630583 368.99240163 221.86398221 358.35320701 219.125 348.75 C218.73376429 345.80065703 218.53510381 342.84114306 218.3125 339.875 C216.76532722 322.87257622 210.43703129 309.10971551 201.6875 294.625 C201.23294434 293.87234863 200.77838867 293.11969727 200.31005859 292.34423828 C197.18142296 287.2533688 193.78523835 282.47030121 190.125 277.75 C189.56224365 277.01861816 188.9994873 276.28723633 188.41967773 275.53369141 C186.63992991 273.22609186 184.85231114 270.92480067 183.0625 268.625 C182.46373047 267.85285156 181.86496094 267.08070313 181.24804688 266.28515625 C180.07814511 264.78081378 178.90325077 263.2803379 177.72290039 261.78417969 C176.75091327 260.54680815 175.79089736 259.29974074 174.85327148 258.03613281 C171.59855481 253.79762098 167.84638088 251.40218254 163.3125 248.75 C161.88276918 247.88111624 160.45436683 247.01004248 159.02734375 246.13671875 C158.3504248 245.72470215 157.67350586 245.31268555 156.97607422 244.88818359 C154.72946322 243.5067934 152.53056288 242.08239594 150.375 240.5625 C149.54742187 239.98435547 149.54742187 239.98435547 148.703125 239.39453125 C143.53441753 234.00832866 142.08139378 227.57211143 140.5625 220.5 C140.14052533 218.63514418 139.71735867 216.77055766 139.29296875 214.90625 C139.09364746 214.01808594 138.89432617 213.12992188 138.68896484 212.21484375 C137.49571266 204.46900204 137.49571266 204.46900204 134.125 197.75 C133.82158575 195.6711618 133.5583675 193.586427 133.3125 191.5 C132.0852243 182.5335604 130.29749239 173.34252738 125.125 165.75 C119.57300169 161.95126431 112.59596191 161.1422852 106.125 159.75 C101.65051103 158.72072458 97.34523253 157.59635173 93.125 155.75 C93.125 155.09 93.125 154.43 93.125 153.75 C92.465 153.75 91.805 153.75 91.125 153.75 C90.72410156 152.58082031 90.32320313 151.41164062 89.91015625 150.20703125 C87.22676544 141.66570904 87.22676544 141.66570904 81.76171875 135 C80.1948639 134.38454147 78.62717928 133.77119041 77.05859375 133.16015625 C74.07178651 130.98189885 74.0749937 128.55713938 73.4375 125 C73.24671875 123.76507813 73.0559375 122.53015625 72.859375 121.2578125 C71.95122851 116.91996385 70.2376796 114.26061781 67.59765625 110.77734375 C65.73245927 108.20960574 64.55610122 105.50851709 63.375 102.57421875 C59.89496589 97.49554396 53.26176524 95.35166249 47.8125 92.9375 C34.90201045 86.98884504 21.96187201 76.88893112 14.125 64.75 C14.125 64.09 14.125 63.43 14.125 62.75 C13.465 62.75 12.805 62.75 12.125 62.75 C10.6796875 61.31640625 10.6796875 61.31640625 9 59.3125 C7.08836796 57.03523355 5.19265872 54.81818018 3.09765625 52.70703125 C-2.06972021 47.42063652 -4.71248879 42.11840255 -7.4296875 35.2734375 C-9.78517023 29.53115257 -12.43912446 23.18587554 -16.875 18.75 C-17.28125 16.140625 -17.28125 16.140625 -17.375 13 C-17.4265625 11.97390625 -17.478125 10.9478125 -17.53125 9.890625 C-16.75184905 6.16063474 -15.67606394 4.44436358 -12.87207031 1.91894531 C-8.84958042 -0.43553899 -4.53883787 -0.10936959 0 0 Z " fill="#6C6D6F" transform="translate(16.875,-0.75)"/>
<path d="M0 0 C3.17098842 3.3691752 5.43358494 7.25168828 7.75390625 11.23046875 C9.0458618 13.29124179 9.0458618 13.29124179 12 15 C14.59530581 15.35797322 17.08044113 15.60768875 19.6875 15.75 C20.77985962 15.81465454 20.77985962 15.81465454 21.89428711 15.88061523 C26.22905528 16.0795292 29.7175688 15.83886236 33.796875 14.48828125 C39.27359555 13.27446907 45.44110749 13.55159586 51 14 C51.99 14.66 52.98 15.32 54 16 C54.43359375 18.42578125 54.43359375 18.42578125 54 21 C52.28515625 22.73046875 52.28515625 22.73046875 50.0625 24.1875 C46.99415787 26.11162944 46.99415787 26.11162944 45 29 C45.53625 29.226875 46.0725 29.45375 46.625 29.6875 C49.82460161 31.45570089 52.29037223 33.53670203 55 36 C55 36.66 55 37.32 55 38 C55.66 38 56.32 38 57 38 C58.95756638 40.5598945 59.92247486 42.57361173 60.5 45.75 C59.99928337 49.00465811 59.32628821 50.28196558 57.625 53 C53.75859563 59.56184057 52.25936786 67.29859599 53.44921875 74.8515625 C53.94225992 76.62024989 54.48187803 78.37659236 55.06640625 80.1171875 C56.5603341 84.73023667 57.3937016 89.47845633 58.3515625 94.2265625 C58.71799333 96.89384532 58.71799333 96.89384532 60 98 C60.61875 96.6078125 60.61875 96.6078125 61.25 95.1875 C62.95736281 92.0776606 63.85767258 90.57116371 67 89 C70.50610679 89.2565444 72.0278901 90.0185934 75 92 C75.82132522 94.4172098 76.48168835 96.71367261 77.0625 99.1875 C77.38611089 100.49364034 77.71032742 101.79963077 78.03515625 103.10546875 C78.1937915 103.74991943 78.35242676 104.39437012 78.51586914 105.05834961 C79.94114174 110.77453368 81.1848411 114.49117584 85 119 C85.33 119.99 85.66 120.98 86 122 C89.56923366 127.3538505 96.22652589 129.1446792 102.34375 130.53125 C104.38407363 130.85770834 104.38407363 130.85770834 107 131 C107 128.03 107 125.06 107 122 C107.66 122 108.32 122 109 122 C109 121.34 109 120.68 109 120 C112.36683915 117.56839395 113.73350364 117 118 117 C117.87625 116.030625 117.7525 115.06125 117.625 114.0625 C117.61416929 108.73379186 120.74046495 104.9778686 124 101 C126.48848842 98.6935961 128.57298639 97.20333981 131.625 95.75 C135.18485106 93.12695185 135.69959292 90.17499115 137 86 C137.66 86 138.32 86 139 86 C139 85.34 139 84.68 139 84 C143.06391762 81.51649479 146.24611511 80.80326175 151 80.3125 C155.27811154 79.7399704 155.27811154 79.7399704 158.72265625 77.37890625 C159.63852855 76.00910307 160.52553169 74.61967103 161.38671875 73.21484375 C164.01605151 69.60508183 167.63077958 67.45272952 171.26953125 64.93359375 C173.67673028 63.22892491 175.86683273 61.46407559 178.0625 59.5 C193.43637841 45.76097165 193.43637841 45.76097165 202.5625 43.3125 C207.24975219 44.63454549 210.71085056 48.95583469 213.25390625 52.98828125 C214.714815 55.2002528 215.76951208 56.5326847 218 58 C221.91487909 58.53640332 225.48911261 58.6266259 229.44140625 58.5390625 C233.94730973 59.12270313 235.1175169 60.58939072 238 64 C245.02169729 70.93518768 252.21226119 71.91068492 261.59570312 73.2175293 C269.13049241 74.4332082 274.32778756 76.93642661 280.16870117 81.82348633 C281.98299055 83.35856983 281.98299055 83.35856983 285 85 C288.67183494 84.38109388 288.67183494 84.38109388 292 83 C298.42105263 83.42105263 298.42105263 83.42105263 301 86 C303.9425963 85.69347955 306.34542308 85.32728846 309 84 C310.64142541 83.85359499 312.2898141 83.77903411 313.9375 83.75 C314.81277344 83.72421875 315.68804688 83.6984375 316.58984375 83.671875 C319 84 319 84 320.8359375 85.28515625 C322 87 322 87 321.6875 90.6875 C321.3471875 92.3271875 321.3471875 92.3271875 321 94 C321.99 93.7525 321.99 93.7525 323 93.5 C326.75634115 92.87394314 330.19113754 92.87303792 334 93 C335.73710169 94.73710169 335.12603814 96.98434462 335.13552856 99.2996521 C335.13249222 100.4394603 335.13249222 100.4394603 335.12939453 101.60229492 C335.13202301 102.7977317 335.13202301 102.7977317 335.13470459 104.01731873 C335.13913061 106.67172379 335.13617891 109.32606291 335.1328125 111.98046875 C335.13348619 113.8288016 335.13445676 115.67713437 335.13571167 117.52546692 C335.13719035 121.41534258 335.13503184 125.30519535 335.13037109 129.19506836 C335.12472527 134.14514882 335.12791865 139.09517444 335.13394356 144.0452528 C335.13758895 147.87262877 335.1363916 151.69999216 335.13381577 155.52736855 C335.13315474 157.34954141 335.13394564 159.17171547 335.13629532 160.99388695 C335.1456054 170.25926095 334.99739481 179.42273224 334.24255371 188.66377258 C333.80555089 194.67456824 333.72945261 200.694827 333.60546875 206.71875 C333.53846367 209.47142223 333.46715498 212.22398222 333.39648438 214.9765625 C333.28772831 219.2599245 333.18481246 223.54321249 333.10131836 227.82714844 C333.0324849 231.33218161 332.9449078 234.83631372 332.84493446 238.34059143 C332.79404562 240.30223927 332.76304113 242.26437081 332.73246765 244.22644043 C332.53250074 250.7747431 332.36082083 254.99272186 328 260 C326.84969429 262.74654785 326.84969429 262.74654785 326 265.5 C324.48932083 269.89415806 322.79682582 273.30419445 320 277 C321.55245419 280.29799969 323.43581295 283.26907474 325.4375 286.3125 C333.44415078 298.92048329 334.44135307 311.00133909 333.625 325.6875 C333.51477164 328.14183123 333.40670019 330.59626027 333.30078125 333.05078125 C333.24744629 334.23365723 333.19411133 335.4165332 333.13916016 336.63525391 C332.94972179 341.21567414 332.84280294 345.79094732 332.8125 350.375 C332.79977051 351.07455811 332.78704102 351.77411621 332.77392578 352.49487305 C332.7644452 356.73637755 333.59584921 360.0270152 335 364 C335.30078125 366.703125 335.30078125 366.703125 335.3125 369.25 C335.32925781 370.10078125 335.34601563 370.9515625 335.36328125 371.828125 C335.24339844 372.54484375 335.12351562 373.2615625 335 374 C331.38015341 376.41323106 329.1543132 376.41102745 325 376 C324.08476563 375.9278125 323.16953125 375.855625 322.2265625 375.78125 C316.23693893 374.85740061 312.76315528 373.35717148 308.95043945 368.49511719 C307.68479188 366.74625795 306.45066165 364.98005415 305.23046875 363.19921875 C303.4267349 360.61207685 301.81025046 358.65734249 299.5 356.5625 C296.18760973 353.43716236 293.65646081 349.84532449 291.0625 346.125 C284.89002797 336.09758711 284.89002797 336.09758711 276.015625 329.29296875 C269.93050219 328.21179479 269.93050219 328.21179479 264.359375 330.1171875 C263.86953125 330.57351563 263.3796875 331.02984375 262.875 331.5 C260 334 260 334 257 334.5625 C254 334 254 334 251.375 332 C247.00713828 329.4116375 243.87290144 329.76042025 238.90234375 330.0546875 C235.75562855 329.99539542 233.77200707 329.46955694 231 328 C229.8125 325.4375 229.8125 325.4375 229 323 C228.34 322.67 227.68 322.34 227 322 C227.433125 322.72445313 227.86625 323.44890625 228.3125 324.1953125 C229.1478125 325.64550781 229.1478125 325.64550781 230 327.125 C230.556875 328.07632812 231.11375 329.02765625 231.6875 330.0078125 C233.1414865 333.32255552 233.44677137 335.42080915 233 339 C229.75063563 342.09085879 227.86817085 342.97006307 223.375 343.125 C219.05646521 341.6854884 218.06651489 339.97406709 216 336 C215.67 335.01 215.34 334.02 215 333 C214.443125 333.825 213.88625 334.65 213.3125 335.5 C211.22082818 337.62121521 210.21705468 337.98518708 207.1953125 338.19140625 C204.96196517 338.10303639 202.72888854 338.00762547 200.49609375 337.90625 C195.77650203 338.03280888 191.9933602 339.45325827 187.65625 341.22265625 C183.77537682 342.35838237 181.21973836 341.62635213 177.6875 339.8125 C176 338 176 338 175.3125 335.1875 C176.52700163 329.55662881 181.23064276 327.17957149 185.8125 324.125 C188 323 188 323 190 323 C189.5359375 321.515 189.5359375 321.515 189.0625 320 C188.64170206 317.23395487 188.82390347 316.26736911 190.38671875 313.89453125 C191.60612492 312.53196629 192.85697251 311.19674896 194.140625 309.89453125 C196.87858849 307.10479954 198.77453466 304.4803392 200.4375 300.9375 C202.1461923 297.72515848 202.82445881 296.69727201 206 295 C209.15335747 294.6072087 212.26503631 294.67303348 215.4375 294.75 C216.28376953 294.75515625 217.13003906 294.7603125 218.00195312 294.765625 C222.11598254 294.81717118 225.98954617 294.97885775 230 296 C230 292.7 230 289.4 230 286 C228.453125 286.061875 228.453125 286.061875 226.875 286.125 C221.59638855 285.95472221 216.77029298 284.91530424 213 281 C212.5 278.625 212.5 278.625 213 276 C215.8363297 271.91433461 219.24942919 269.06350844 223.25 266.1875 C223.80429688 265.78080078 224.35859375 265.37410156 224.9296875 264.95507812 C226.28210453 263.96408289 227.64044907 262.98118534 229 262 C226.80721979 259.62737031 224.58321039 258.08031059 221.8125 256.4375 C212.29084761 250.12069647 206.89062819 240.95103371 204 230 C203.68209997 226.00638088 203.88747928 223.43284617 206 220 C204.96101563 219.75765625 203.92203125 219.5153125 202.8515625 219.265625 C178.18557557 213.3907969 178.18557557 213.3907969 171.25 204.625 C165.05449379 197.17771632 155.95080274 194.01744459 147.18164062 190.54394531 C143.33262829 189.00947239 139.7394179 187.40837347 136.1875 185.25 C128.5427891 180.793045 121.00152748 179.61186538 112.37109375 180.9375 C108.78380221 181.03205793 106.29347597 179.5314402 103.15625 177.9296875 C98.66006305 175.99111414 94.2849021 176.74301958 89.5625 177.6875 C84.75969206 178.10879894 81.40871525 176.77973262 77 175 C75.83017578 174.58041016 75.83017578 174.58041016 74.63671875 174.15234375 C69.04644093 171.9820006 65.22342965 169.13220564 62 164 C62 163.34 62 162.68 62 162 C61.28714844 162.03480469 60.57429688 162.06960938 59.83984375 162.10546875 C58.40318359 162.14607422 58.40318359 162.14607422 56.9375 162.1875 C55.99777344 162.22230469 55.05804687 162.25710938 54.08984375 162.29296875 C46.91640236 161.6128068 43.26570393 158.72955765 38.76367188 153.40429688 C38.20228516 152.71400391 37.64089844 152.02371094 37.0625 151.3125 C36.47404297 150.61060547 35.88558594 149.90871094 35.27929688 149.18554688 C33.84084943 147.46642675 32.41519549 145.73826742 31 144 C28.49970555 144.64607617 28.49970555 144.64607617 26 146 C24.96993418 148.22224893 24.96993418 148.22224893 24.5625 150.8125 C23.22323712 155.94757425 21.65435345 158.15567289 17 161 C14.76710569 161.8907174 12.54089132 162.63134483 10.234375 163.30859375 C8.1483509 163.95409421 6.28090736 164.75120004 4.3125 165.6875 C0.71418699 167.11324666 -1.20208943 167.80806608 -5 167 C-10.42801751 162.92898686 -12.60657277 156.72520499 -14.921875 150.57421875 C-15.85319839 147.89409714 -15.85319839 147.89409714 -18 146 C-17.90404633 141.87399224 -16.81828631 139.57315609 -14.3125 136.4375 C-12.2265391 133.82433915 -12.2265391 133.82433915 -12.3125 130.5625 C-16.49221302 123.40575989 -16.49221302 123.40575989 -23 119 C-26.5169923 118.76668601 -30.0328933 118.61863063 -33.5546875 118.4765625 C-38.0751537 117.85128259 -40.69670466 116.26125355 -43.9375 113.125 C-45 111 -45 111 -44.5 108.5 C-42.72451244 105.54085406 -40.84924473 103.92324019 -38 102 C-37.34 102 -36.68 102 -36 102 C-35.90203125 101.38511719 -35.8040625 100.77023437 -35.703125 100.13671875 C-34.49792531 93.62240664 -34.49792531 93.62240664 -32.25 90.8125 C-30 90 -30 90 -27.3125 90.4375 C-24.45695559 91.78445491 -22.14365992 93.2133808 -19.5625 95 C-13.15652375 99.3920573 -7.60545249 100.26685798 0 100 C1.46714278 97.13240275 2.87542768 94.35710733 3.9375 91.3125 C5.22790765 88.5039657 6.3648419 87.58661351 9 86 C15.00100439 85.54447821 19.74810848 87.24900921 25 90 C27.25007285 90.10546369 27.25007285 90.10546369 29 89 C30.24174796 87.0998823 30.24174796 87.0998823 31 85 C31.33 84.34 31.66 83.68 32 83 C28.37490317 83.31138304 24.74994162 83.62431571 21.125 83.9375 C20.11179687 84.02451172 19.09859375 84.11152344 18.0546875 84.20117188 C13.26730184 84.61546486 8.48338951 85.04503592 3.703125 85.53515625 C-7.65855324 86.66996367 -16.710409 86.6130981 -27.5625 82.875 C-28.39507324 82.59205078 -29.22764648 82.30910156 -30.08544922 82.01757812 C-36.90671999 79.47802163 -42.63998775 75.94671123 -46.125 69.375 C-47.23267563 66.91719613 -48.2333071 64.42441164 -49.24609375 61.92578125 C-49.68050781 60.85714844 -50.11492187 59.78851563 -50.5625 58.6875 C-50.95566406 57.68074219 -51.34882812 56.67398438 -51.75390625 55.63671875 C-52.97687475 53.04893275 -53.80094432 51.77181421 -56 50 C-58.05187744 49.53135239 -58.05187744 49.53135239 -60.30859375 49.55859375 C-61.13810547 49.53216797 -61.96761719 49.50574219 -62.82226562 49.47851562 C-64.11680664 49.45821289 -64.11680664 49.45821289 -65.4375 49.4375 C-67.14472179 49.40292011 -68.85180283 49.36023444 -70.55859375 49.30859375 C-71.31454834 49.29626709 -72.07050293 49.28394043 -72.84936523 49.27124023 C-75.32167555 48.95942995 -76.91592572 48.3640125 -79 47 C-79.495 45.515 -79.495 45.515 -80 44 C-77.07005486 39.15922107 -72.78856942 36.73134421 -68 34 C-68.33 33.154375 -68.66 32.30875 -69 31.4375 C-70.35967797 26.76360699 -70.75497462 22.98180837 -69 18.375 C-65.45573144 14.16618108 -61.74371595 11.33728 -56.171875 10.65234375 C-51.94399827 10.61277806 -48.07720467 10.83780615 -44 12 C-43.21625 10.948125 -42.4325 9.89625 -41.625 8.8125 C-32.66505371 -1.5533395 -12.44190263 -6.11406212 0 0 Z " fill="#6C6D6F" transform="translate(1575,282)"/>
<path d="M0 0 C3.04478055 1.51625161 5.08632439 3.17582916 7 6 C8.64752631 12.21521903 7.25500885 17.12968891 4.1875 22.625 C3.63320312 23.52605469 3.07890625 24.42710937 2.5078125 25.35546875 C1.05252633 27.90787481 0.29389205 30.10914213 -0.4375 32.9375 C-1.43415991 36.22647771 -2.3203789 37.64375089 -5.3125 39.375 C-6.52799182 39.94669319 -7.75762242 40.48936176 -9 41 C-13.15849239 42.760286 -13.15849239 42.760286 -16.375 45.75 C-17.16254319 48.14339881 -17.16254319 48.14339881 -16.875 51.3125 C-17.05546364 56.63617729 -18.90431421 60.02503344 -22.6953125 63.59765625 C-31.91778825 70.89722714 -39.69170899 73.72735609 -51.4375 73.0625 C-59.32897528 72.64309966 -65.37235736 72.98311898 -72.71801758 76.09228516 C-75 77 -75 77 -78.25 77.3125 C-82.12921262 75.46105761 -83.91719631 72.55007496 -86.2890625 69.03125 C-88.27474815 66.67381498 -88.97913369 66.29511127 -92 66 C-94.18751223 65.98049352 -96.37562279 66.00630092 -98.5625 66.0625 C-102.98780405 66.10798103 -106.94293074 65.93914402 -111.25 64.9375 C-116.33004135 63.83870587 -120.93155893 64.1478679 -126.0625 64.5625 C-132.27101734 65.05810565 -137.10527161 64.92536585 -143.02734375 62.7109375 C-146.66099217 61.401385 -149.71737942 61.42417562 -153.21875 62.99609375 C-161.61335417 66.02616857 -170.87004425 64.51565427 -178.71875 60.83984375 C-182.49698641 59.44888343 -186.23712311 59.59441175 -190 61 C-195.2702273 65.56890546 -201.91113768 72.7956776 -203.0625 79.875 C-203.09926423 82.88864724 -203.09926423 82.88864724 -202.5078125 85.33984375 C-201.23186834 92.02382817 -201.59036498 98.85178277 -203.1875 105.4375 C-204.08539164 109.26860506 -204.08539164 109.26860506 -202.625 113 C-202.08875 113.66 -201.5525 114.32 -201 115 C-201 115.66 -201 116.32 -201 117 C-200.13117188 116.95359375 -199.26234375 116.9071875 -198.3671875 116.859375 C-186.90855457 116.50049164 -186.90855457 116.50049164 -182 121 C-181.67 121.33 -181.34 121.66 -181 122 C-181.48001037 126.72010197 -182.21890937 131.31345623 -183 136 C-178.71 136.66 -174.42 137.32 -170 138 C-169.95875 135.999375 -169.9175 133.99875 -169.875 131.9375 C-169.45946068 126.25019314 -168.50713272 123.17661332 -164.47265625 119.171875 C-161.35071104 116.68756846 -158.90909362 116.8371211 -155 117 C-154.34 117.33 -153.68 117.66 -153 118 C-140.65162121 119.29379566 -130.36355129 117.92312947 -119 113 C-115.85786529 111.99259803 -113.04366371 111.89416232 -109.75 111.9375 C-108.41195313 111.95103516 -108.41195313 111.95103516 -107.046875 111.96484375 C-106.37140625 111.97644531 -105.6959375 111.98804688 -105 112 C-105.66 110.35 -106.32 108.7 -107 107 C-102.96603203 102.12562204 -98.17412452 100.3498703 -92.05859375 99.67578125 C-83.35752455 99.35997273 -83.35752455 99.35997273 -79.3125 101.9375 C-75.61648257 104.23879387 -73.26261667 104.53351742 -69.015625 104.7265625 C-67 105 -67 105 -64 107 C-62.94309791 111.33411786 -63.29482199 115.48386727 -65.171875 119.51953125 C-67.82228501 123.6385963 -70.65081341 127.60794737 -75 130 C-78.42869734 129.8509262 -81.17751574 128.94190394 -84.4375 127.875 C-88.58189442 126.85707856 -90.86153839 126.95112161 -95 128 C-97.47585266 129.74348683 -99.45476836 131.83978448 -101.5 134.0625 C-102.06605957 134.65232666 -102.63211914 135.24215332 -103.21533203 135.84985352 C-106.1889826 138.97094724 -109.0641578 142.16878305 -111.875 145.4375 C-122.13786033 157.2830665 -136.48647488 162.83079927 -151 168 C-150.19175781 168.44730469 -149.38351562 168.89460937 -148.55078125 169.35546875 C-140.66805425 173.81505736 -133.30018416 178.07300185 -130 187 C-129.40681004 190.662948 -129.13404267 194.29372027 -129 198 C-128.154375 198.061875 -127.30875 198.12375 -126.4375 198.1875 C-120.91182633 199.49356832 -117.47979855 201.87299285 -114.22265625 206.5546875 C-112.74708295 209.00587514 -111.33985367 211.47243721 -110 214 C-112.30525164 218.74070022 -112.30525164 218.74070022 -115.48046875 219.92578125 C-116.37378906 220.05339844 -117.26710938 220.18101562 -118.1875 220.3125 C-119.08855469 220.45300781 -119.98960937 220.59351563 -120.91796875 220.73828125 C-121.60503906 220.82464844 -122.29210938 220.91101563 -123 221 C-121.93458984 221.83144531 -121.93458984 221.83144531 -120.84765625 222.6796875 C-119.92855469 223.40414062 -119.00945312 224.12859375 -118.0625 224.875 C-117.14597656 225.59429687 -116.22945312 226.31359375 -115.28515625 227.0546875 C-113 229 -113 229 -112 231 C-111.95834237 232.99956611 -111.95834237 235.00043389 -112 237 C-112 237.66 -112 238.32 -112 239 C-111.01 239.515625 -110.02 240.03125 -109 240.5625 C-106 243 -106 243 -105.6015625 245.26171875 C-105.62296199 247.53363117 -105.7396446 249.74358657 -106 252 C-104.9275 252.2475 -103.855 252.495 -102.75 252.75 C-98.95507368 254.01497544 -97.20576507 254.6913524 -95 258 C-94.91236529 262.03119653 -95.90249162 263.85791636 -98.1875 267.1875 C-102.6516 271.6516 -107.41459073 273.21715875 -113.4375 274.75 C-118.83725808 276.3478876 -121.72832659 278.09595893 -125.42578125 282.25 C-129.3072681 286.5649035 -132.78460522 288.70413294 -138.59765625 289.48046875 C-150.93083017 289.93005243 -150.93083017 289.93005243 -155.63671875 285.61328125 C-159.69406731 280.8118917 -162.83718511 276.71383445 -162.4453125 270.078125 C-161.74933803 266.83024414 -160.27344427 264.01069022 -158.83984375 261.03125 C-157.82885545 258.9524065 -157.82885545 258.9524065 -158 256.3125 C-160.53359135 250.45357 -164.4072241 246.41616152 -169.125 242.3125 C-176.83611403 235.53522592 -176.83611403 235.53522592 -177.265625 231.51171875 C-177.22156617 223.54808473 -177.22156617 223.54808473 -175.8125 220.0625 C-174.63800266 215.63554848 -176.04622035 212.2446455 -177.25390625 207.90234375 C-178.48757062 203.10332476 -178.4912855 199.41926921 -176.875 194.75 C-176.58625 193.8425 -176.2975 192.935 -176 192 C-176.66 191.01 -177.32 190.02 -178 189 C-178 188.01 -178 187.02 -178 186 C-188.95193926 190.59113308 -193.71851883 195.39253079 -199 206 C-199.33 206.66 -199.66 207.32 -200 208 C-200.66 208 -201.32 208 -202 208 C-203.29626467 217.07385269 -199.13378677 223.52840074 -194.84790039 231.2199707 C-192.36853555 236.4249949 -192.24761531 242.36547467 -193 248 C-195.51771937 251.4268958 -198.07132813 253.39942998 -202 255 C-200.99714388 257.69999726 -199.94037507 260.09778489 -198.4375 262.5625 C-194.83914903 268.66405164 -195.3552541 276.02424968 -196.8125 282.75 C-198 286 -198 286 -199.625 289.0625 C-201.21067251 292.45007308 -201.62807568 294.31005537 -201 298 C-198.60414714 300.64587234 -198.60414714 300.64587234 -196 303 C-195.1875 304.8125 -195.1875 304.8125 -195 307 C-194.87625 308.299375 -194.7525 309.59875 -194.625 310.9375 C-194.68188697 314.31911456 -195.02146901 315.03122764 -197.0625 318 C-200.73616939 320.50122172 -202.63083745 320.54614532 -207 320 C-209.9375 319 -209.9375 319 -212 318 C-212.515625 318.928125 -213.03125 319.85625 -213.5625 320.8125 C-216.07265372 324.5158606 -218.59304883 325.95428277 -223 327 C-228.82975348 324.28881344 -233.1841962 320.4026452 -237.8125 316 C-238.47958984 315.38382812 -239.14667969 314.76765625 -239.83398438 314.1328125 C-244.45161533 309.790096 -247.25698579 306.63400916 -247.5 300.0625 C-247.44037325 295.55736794 -247.44037325 295.55736794 -245.69140625 293.34375 C-244.18202215 292.15651262 -242.59281543 291.07271243 -241 290 C-240.67 289.01 -240.34 288.02 -240 287 C-240.33 286.67 -240.66 286.34 -241 286 C-241.12619896 284.08647154 -241.17580701 282.16764977 -241.1875 280.25 C-241.20167969 279.20328125 -241.21585938 278.1565625 -241.23046875 277.078125 C-240.99563994 273.94176737 -240.2003149 271.87613917 -239 269 C-238.65903247 266.44539758 -238.65903247 266.44539758 -238.5625 263.8125 C-238.20490455 258.92536224 -237.1718787 254.63360855 -235.62109375 249.99609375 C-234.9009652 248.03013331 -234.9009652 248.03013331 -235 246 C-235.74636719 245.72671875 -236.49273438 245.4534375 -237.26171875 245.171875 C-239.81296682 244.08004273 -241.61630034 242.91392316 -243.8125 241.25 C-248.06386096 238.29408742 -252.33582985 236.71581308 -257.1875 235.0625 C-266.87491344 231.63615161 -266.87491344 231.63615161 -270.13671875 227.03125 C-271.1696752 224.60076424 -271.40484053 222.43557987 -271.6875 219.8125 C-272.46184 213.51337457 -275.78265671 210.29134464 -280.19018555 206.05981445 C-281.52171793 204.76710097 -282.76731286 203.38728837 -284 202 C-284 200.68 -284 199.36 -284 198 C-283.34 198 -282.68 198 -282 198 C-282 197.34 -282 196.68 -282 196 C-280.97519531 195.69707031 -279.95039062 195.39414062 -278.89453125 195.08203125 C-277.53359972 194.65967319 -276.17293647 194.23644997 -274.8125 193.8125 C-274.13896484 193.61591797 -273.46542969 193.41933594 -272.77148438 193.21679688 C-266.89540196 191.35364879 -263.56327137 188.42576592 -260.1875 183.1875 C-258.24458765 180.35639914 -256.42349169 178.44314189 -253.9375 176.125 C-249.02214285 171.31032987 -247.27421194 167.1808585 -246.6875 160.375 C-246.82113314 156.59615173 -247.46858421 152.9177793 -248.0625 149.1875 C-249.30012385 140.94846124 -250.08377851 133.03294023 -245 126 C-242.80078125 124.21875 -242.80078125 124.21875 -240.3125 122.5 C-232.05758162 116.1277823 -227.08835419 106.84412897 -224 97 C-225.07701172 96.5978125 -225.07701172 96.5978125 -226.17578125 96.1875 C-229.02017115 94.99151863 -231.54940456 93.59642689 -234.1875 92 C-235.04730469 91.484375 -235.90710938 90.96875 -236.79296875 90.4375 C-239 89 -239 89 -241 87 C-240.625 83.875 -240.625 83.875 -240 81 C-239.01 80.67 -238.02 80.34 -237 80 C-237 79.34 -237 78.68 -237 78 C-235.34614767 76.65080468 -233.678298 75.31866272 -232 74 C-229.70177483 71.10538099 -229.70177483 71.10538099 -229.8125 67.4375 C-228.96560054 59.35481038 -222.28713603 52.87410269 -216.61328125 47.52734375 C-214.8008402 45.85601907 -214.8008402 45.85601907 -212.5625 43.25 C-208.52724515 39.7068494 -203.94576455 38.58372937 -198.875 37.0625 C-194.16277708 35.32102631 -190.79468074 33.19202111 -188 29 C-187.67287763 26.71428423 -187.5605032 24.46135232 -187.44140625 22.15625 C-186.88617488 19.44396933 -186.16898603 18.69832371 -184 17 C-180.15570807 16.16077231 -176.23718882 16.11727456 -172.3125 15.9375 C-170.71631836 15.81084961 -170.71631836 15.81084961 -169.08789062 15.68164062 C-162.48354228 15.3593778 -158.64673688 15.9940138 -153.61010742 20.39672852 C-152.5211021 21.48111031 -151.45272591 22.58654453 -150.40429688 23.71020508 C-149.94087891 24.1358374 -149.47746094 24.56146973 -149 25 C-145.82855511 24.69795763 -143.07104629 23.17373108 -140.1875 21.875 C-134.66419943 19.67374298 -131.18141035 19.63204596 -125.62890625 22.01953125 C-121.5832951 23.95920783 -117.75573079 26.11179082 -114 28.5625 C-106.46448633 33.34407093 -99.00094077 36.42183536 -90 35 C-86.67735844 34.06494942 -83.39433293 33.05671546 -80.11010742 31.99707031 C-72.97885195 29.78797796 -65.80253066 28.82912411 -58.39941406 27.98901367 C-53.91629551 27.46820227 -50.15469746 26.86327081 -46 25 C-45.01 25 -44.02 25 -43 25 C-43 24.34 -43 23.68 -43 23 C-40.77798821 21.45491257 -38.57816341 20.05621531 -36.25 18.6875 C-35.57275879 18.28305664 -34.89551758 17.87861328 -34.19775391 17.46191406 C-29.12021858 14.49475542 -23.9367297 12.24794289 -18.45703125 10.11328125 C-15.23591386 8.65379245 -13.26896285 6.68150155 -11 4 C-7.3161226 0.50503939 -5.12606857 -1.02521371 0 0 Z " fill="#6B6C6E" transform="translate(1253,179)"/>
<path d="M0 0 C7.5093247 1.64876952 16.03241968 5.44467801 21.25390625 11.26171875 C23.47878575 14.06547852 23.47878575 14.06547852 26.44140625 14.19921875 C30.50382182 13.73932265 33.6722821 12.23541566 37.25390625 10.38671875 C41.74409039 8.09627128 45.63600449 6.23719065 50.75390625 5.82421875 C56.03944838 7.5477651 59.22944197 11.10556491 62.921875 15.08203125 C66.71050172 18.68486177 71.35152566 17.97377157 76.25390625 17.94921875 C77.02605469 17.95308594 77.79820312 17.95695313 78.59375 17.9609375 C84.50688485 18.10295565 84.50688485 18.10295565 89.44140625 15.26171875 C89.87453125 14.78734375 90.30765625 14.31296875 90.75390625 13.82421875 C96.66262887 16.36951465 100.38750633 21.54688554 103.62890625 26.94921875 C104.79300487 29.92413744 105.27426388 32.67602066 105.75390625 35.82421875 C122.08088697 41.6253804 139.27542805 47.52940105 156.75390625 47.82421875 C157.53217773 47.84323242 158.31044922 47.86224609 159.11230469 47.88183594 C161.80537121 47.94274697 164.49782593 47.98161615 167.19140625 48.01171875 C168.05709229 48.02501221 168.92277832 48.03830566 169.81469727 48.05200195 C176.08856875 48.16500611 176.08856875 48.16500611 181.75390625 45.82421875 C183.23208571 43.02863949 183.23208571 43.02863949 184.19140625 39.69921875 C187.01407683 31.67502313 190.75771916 24.82231229 198.62890625 20.88671875 C202.36791251 20.77674798 204.02508311 22.38569595 206.75390625 24.82421875 C207.59375 26.95703125 207.59375 26.95703125 208.25390625 29.32421875 C209.23620248 32.73138338 209.70303813 33.77335063 212.31640625 36.38671875 C216.17386131 37.99983632 218.66060085 38.00729179 222.765625 37.8515625 C231.93139307 37.76769273 240.03229464 38.26264552 246.75390625 44.82421875 C253.12274914 47.9333098 260.36798213 48.71527984 267.30078125 49.78515625 C271.37445885 51.01094612 273.08751074 52.55541536 275.75390625 55.82421875 C276.83890661 59.07921984 276.92827422 61.71499103 277.06640625 65.13671875 C277.44043855 70.7409694 278.25384494 73.53382102 281.75390625 77.82421875 C281.75390625 78.81421875 281.75390625 79.80421875 281.75390625 80.82421875 C286.35797612 80.87435101 290.9618807 80.91027745 295.56616211 80.93408203 C297.12641168 80.94402503 298.68664321 80.95758422 300.24682617 80.97509766 C308.99311041 81.07068546 317.34232097 80.88274845 325.98095703 79.28173828 C330.17224889 78.59020095 334.529816 78.24158561 338.75390625 78.82421875 C340.75390625 80.82421875 340.75390625 80.82421875 340.984375 82.8828125 C340.97019531 83.66785156 340.95601562 84.45289063 340.94140625 85.26171875 C340.93496094 86.04417969 340.92851563 86.82664062 340.921875 87.6328125 C340.75390625 89.82421875 340.75390625 89.82421875 339.75390625 92.82421875 C338.60690738 103.83540794 345.17208076 113.94630866 350.046875 123.41796875 C352.43895094 128.19117292 353.0446781 131.49340156 352.75390625 136.82421875 C350.75390625 138.82421875 350.75390625 138.82421875 348.56640625 139.26171875 C344.50080219 138.62929145 341.89506607 136.31081791 338.75390625 133.82421875 C337.41936718 132.81023797 336.08207877 131.79986642 334.7421875 130.79296875 C334.07396973 130.29023437 333.40575195 129.7875 332.71728516 129.26953125 C325.66312089 124.076712 318.58727403 119.56143996 310.00390625 117.484375 C307.65822766 116.79614639 305.99942116 115.81084066 303.94140625 114.51171875 C296.27162958 110.57030574 287.03198584 114.66793572 279.35473633 117.07080078 C277.69258188 117.60508184 276.03339014 118.1486909 274.37768555 118.70263672 C261.88957062 122.87707497 251.03916511 122.79806876 238.69140625 118.02734375 C232.81856418 115.7791464 227.04485597 115.20477683 220.83300781 114.59130859 C214.30017637 113.93211824 207.91219666 112.90657166 201.484375 111.57421875 C199.14651047 111.10419782 196.79394425 110.69787827 194.4296875 110.38671875 C186.14398536 109.08220476 181.04650521 105.47086434 174.63598633 100.37915039 C169.02855254 95.92772106 163.37306366 92.60444899 156.75390625 89.82421875 C155.79613281 89.41429687 154.83835937 89.004375 153.8515625 88.58203125 C145.10479929 85.10252325 139.0876499 85.50571337 130.02734375 87.3203125 C125.29285084 88.04913062 120.55238323 88.24005045 115.76782227 88.39428711 C110.62357382 88.6058095 106.31921207 89.42219022 101.78125 91.90234375 C93.4060543 95.7107179 81.37560552 94.14176553 72.75390625 91.82421875 C65.66888961 89.10786317 59.85738636 85.59149176 54.47265625 80.2421875 C50.91748289 77.30916948 46.69934139 77.68092977 42.2578125 77.61328125 C40.97583984 77.58492187 39.69386719 77.5565625 38.37304688 77.52734375 C35.70372849 77.47325552 33.03492317 77.43148196 30.36523438 77.39453125 C8.85870041 76.88017468 8.85870041 76.88017468 1.75390625 70.82421875 C1.75390625 68.19921875 1.75390625 68.19921875 2.75390625 64.82421875 C5.21973013 62.50957646 7.91245119 60.64948145 10.75390625 58.82421875 C3.83409114 55.86192903 -3.0558053 53.05714036 -10.24609375 50.82421875 C-11.33921875 50.45296875 -12.43234375 50.08171875 -13.55859375 49.69921875 C-24.0361942 47.21300847 -38.65324611 45.84840138 -49.0390625 48.9609375 C-50.09738281 49.24582031 -51.15570313 49.53070312 -52.24609375 49.82421875 C-53.23609375 49.16421875 -54.22609375 48.50421875 -55.24609375 47.82421875 C-53.83018575 43.36850828 -51.64156709 40.87180741 -48.30859375 37.63671875 C-47.43332031 36.77691406 -46.55804688 35.91710937 -45.65625 35.03125 C-42.30605603 31.96340625 -40.3240323 30.54376048 -35.80859375 30.57421875 C-35.04675781 30.5690625 -34.28492188 30.56390625 -33.5 30.55859375 C-31.00953655 30.85209724 -29.45070674 31.66668648 -27.24609375 32.82421875 C-24.92114098 33.21171088 -22.58758107 33.55404714 -20.24609375 33.82421875 C-20.29830078 32.6640625 -20.29830078 32.6640625 -20.3515625 31.48046875 C-20.65830637 19.67813323 -18.25425282 14.46015868 -10.27026367 5.859375 C-4.43830565 -0.24034146 -4.43830565 -0.24034146 0 0 Z " fill="#6B6C6E" transform="translate(461.24609375,496.17578125)"/>
<path d="M0 0 C2.6875 1.375 2.6875 1.375 5 3 C6.1446875 3.6496875 6.1446875 3.6496875 7.3125 4.3125 C9 6 9 6 9.6875 8.75 C8.66857999 13.56671278 5.80168047 16.02306426 2 19 C-0.9375 20.4375 -0.9375 20.4375 -3 21 C-3 21.66 -3 22.32 -3 23 C-4.86328125 24.47265625 -4.86328125 24.47265625 -7.3125 26.0625 C-8.11300781 26.58972656 -8.91351562 27.11695313 -9.73828125 27.66015625 C-12 29 -12 29 -15 30 C-15.28230469 30.59425781 -15.56460937 31.18851563 -15.85546875 31.80078125 C-17.43211045 34.83030096 -19.55641204 36.19968555 -22.3125 38.1875 C-23.25738281 38.88230469 -24.20226563 39.57710937 -25.17578125 40.29296875 C-27.99476169 41.99683383 -29.73213817 42.80351464 -33 43 C-35.54296875 42.29296875 -35.54296875 42.29296875 -38.1875 41.1875 C-41.88669431 39.76473296 -45.52394645 38.44981141 -49.375 37.5 C-50.14585938 37.3040625 -50.91671875 37.108125 -51.7109375 36.90625 C-55.0392651 37.04256376 -56.45428403 38.9198722 -59 41 C-62.375 42.1953125 -62.375 42.1953125 -66 43.125 C-74.73116978 45.16844995 -74.73116978 45.16844995 -81.4375 50.6875 C-82.02660156 51.39519531 -82.61570312 52.10289062 -83.22265625 52.83203125 C-83.80917969 53.54746094 -84.39570312 54.26289062 -85 55 C-86.12278675 56.293591 -87.24762151 57.58540878 -88.375 58.875 C-89.86814223 60.59171433 -90.98008334 61.96016668 -92 64 C-92.66 64 -93.32 64 -94 64 C-94.27714844 64.59039063 -94.55429688 65.18078125 -94.83984375 65.7890625 C-99.16478859 74.03121327 -106.84515662 79.6263048 -115.4375 82.875 C-118.803218 83.9087982 -121.61857833 84.04475112 -125.125 83.875 C-128.87610723 83.72564504 -130.49738357 84.0115761 -133.3125 86.5 C-137.45910319 89.96374968 -141.80432582 89.70461521 -147.01953125 89.4765625 C-150 89 -150 89 -153.3125 87 C-155.44571308 83.20762119 -155.75252835 80.20161661 -155 76 C-154.53667992 74.71533979 -154.03547174 73.44379908 -153.5 72.1875 C-151.39014586 67.22488533 -151.73685707 62.30184271 -152 57 C-152.66 57 -153.32 57 -154 57 C-154.375 53.8125 -154.375 53.8125 -154 50 C-150.00000218 45.35135388 -145.45023669 43.94174556 -139.73046875 42.03515625 C-137.17194477 41.0651865 -135.19047737 39.96842783 -132.9375 38.4375 C-125.61586987 33.60078676 -116.78071419 32.45606333 -108.296875 30.84375 C-104.76278335 29.93929053 -102.06746242 28.98687906 -99 27 C-97.29235118 24.20626227 -97.29235118 24.20626227 -96.25 21 C-95.0161242 17.64385782 -93.9915551 14.98733266 -92 12 C-87.65076976 10.55025659 -83.29813804 10.6131284 -78.73828125 10.37890625 C-75.00529983 10.11597994 -75.00529983 10.11597994 -71.5534668 8.98852539 C-65.88532517 7.53976205 -60.22128624 7.7520281 -54.40625 7.8046875 C-52.62534973 7.80893234 -52.62534973 7.80893234 -50.80847168 7.81326294 C-47.03887599 7.82440402 -43.26952315 7.84949774 -39.5 7.875 C-36.93489928 7.88503763 -34.36979481 7.89416211 -31.8046875 7.90234375 C-25.53637632 7.92432349 -19.26820552 7.9577405 -13 8 C-13.07927734 6.83597656 -13.07927734 6.83597656 -13.16015625 5.6484375 C-13 3 -13 3 -10.4375 0.625 C-6.27040541 -1.34489926 -4.40481846 -1.20131412 0 0 Z " fill="#6B6B6D" transform="translate(1330,611)"/>
<path d="M0 0 C2.72055656 0.57274875 3.67169958 1.34846263 5.375 3.5 C5.045 4.180625 4.715 4.86125 4.375 5.5625 C1.86777966 12.92745975 4.19878245 17.90602744 7.375 24.5 C9.23532404 29.01792981 9.5111702 31.72808514 8.375 36.5 C8.87128906 36.06429687 9.36757812 35.62859375 9.87890625 35.1796875 C11.30076394 33.93320125 12.72542506 32.68990819 14.15234375 31.44921875 C15.53328641 30.23816359 16.90285561 29.01384608 18.25390625 27.76953125 C22.73209659 23.71211047 26.37047107 21.92921842 32.4375 21.0625 C35.375 21.5 35.375 21.5 38.25 23.5 C40.43829628 26.58935945 41.11398894 28.46463867 40.86328125 32.25390625 C39.35391617 39.19698562 35.34915145 45.52584855 30.375 50.5 C29.20575358 51.17832128 28.01689376 51.8237471 26.8125 52.4375 C22.65793377 54.58735196 21.31656505 57.30621949 19.375 61.5 C19.375 62.16 19.375 62.82 19.375 63.5 C21.03789063 63.89832031 21.03789063 63.89832031 22.734375 64.3046875 C24.19797811 64.66120621 25.66151641 65.01799103 27.125 65.375 C27.85460938 65.54902344 28.58421875 65.72304687 29.3359375 65.90234375 C38.42960194 68.13442502 38.42960194 68.13442502 40.5 71.125 C41.375 73.5 41.375 73.5 42.25 77.375 C42.97149293 80.53666414 43.63707068 81.88187442 45.5625 84.6875 C47.375 87.5 47.375 87.5 47.125 90.375 C46.75375 91.426875 46.75375 91.426875 46.375 92.5 C38.79066858 93.70659818 33.51593529 89.54957085 27.375 85.5 C26.84640381 85.0568042 26.31780762 84.6136084 25.77319336 84.15698242 C20.89370903 80.16918051 17.11994923 79.86368114 10.9375 80.1875 C10.11056641 80.21005859 9.28363281 80.23261719 8.43164062 80.25585938 C6.41196423 80.31423153 4.39323279 80.40389368 2.375 80.5 C2.6016333 81.00748779 2.8282666 81.51497559 3.06176758 82.0378418 C7.08107557 91.1081792 10.94405382 99.83157767 12.70703125 109.640625 C14.45493291 117.1228707 18.35220795 122.50832507 22.96679688 128.42578125 C24.92771168 131.04225963 26.29728826 133.05362377 26.86328125 136.3046875 C26.375 138.5 26.375 138.5 23.375 140.5 C19.10706495 141.31294001 16.61407082 140.3000516 13.0625 138.0625 C4.38750137 131.81591583 -1.35103384 125.26906552 -5.625 115.5 C-6.5105399 113.68244871 -7.40622283 111.86980056 -8.3125 110.0625 C-8.70824219 109.25941406 -9.10398437 108.45632813 -9.51171875 107.62890625 C-10.68136424 105.30064653 -10.68136424 105.30064653 -12.625 102.5 C-13.28730514 97.98428316 -13.0804005 94.39328559 -11 90.3125 C-9.31932465 87.56821187 -9.31932465 87.56821187 -10.125 84.5625 C-11.64096608 81.46740258 -13.41048673 78.90780056 -15.4453125 76.14453125 C-17.45273668 73.34610218 -18.87451226 71.1155559 -18.32885742 67.58251953 C-18.19326416 66.85661621 -18.0576709 66.13071289 -17.91796875 65.3828125 C-17.25599153 59.92754841 -18.9858857 56.46030648 -21.5625 51.75 C-26.37447266 42.67232203 -26.37447266 42.67232203 -25.625 38.5 C-24.965 37.84 -24.305 37.18 -23.625 36.5 C-23.3382794 34.50743666 -23.11954312 32.50483856 -22.9375 30.5 C-21.92009062 23.2907007 -19.26979511 18.97991988 -14.625 13.5 C-14.01785156 12.7678125 -13.41070313 12.035625 -12.78515625 11.28125 C-11.10612286 9.31196795 -9.37942208 7.40202971 -7.625 5.5 C-6.325625 4.015 -6.325625 4.015 -5 2.5 C-2.625 0.5 -2.625 0.5 0 0 Z M-0.16796875 43.71875 C-2.00331424 45.96249676 -1.99955901 47.13573793 -1.9375 50 C-1.93363281 50.7734375 -1.92976563 51.546875 -1.92578125 52.34375 C-1.74325461 54.79324946 -1.74325461 54.79324946 0.375 57.5 C0.71451619 55.93883181 1.04632544 54.37598662 1.375 52.8125 C1.560625 51.94238281 1.74625 51.07226562 1.9375 50.17578125 C2.36472047 47.56287036 2.45116201 45.14186962 2.375 42.5 C1.17808151 42.39669375 1.17808151 42.39669375 -0.16796875 43.71875 Z " fill="#696A6C" transform="translate(1366.625,165.5)"/>
<path d="M0 0 C3.32213529 2.74437263 4.66583466 4.351786 5.51953125 8.5625 C5.88473156 14.67748189 4.85361668 18.51532157 0.859375 23.15625 C-1.7231826 25.71710544 -4.42377092 28.09029771 -7.265625 30.359375 C-9.12352884 31.87184129 -9.12352884 31.87184129 -9.734375 34.015625 C-11.45048514 36.7063162 -13.57276035 37.47044491 -16.53515625 38.45947266 C-21.32237309 39.50928427 -26.12460359 39.30648652 -31 39.1875 C-32.06089844 39.17396484 -33.12179687 39.16042969 -34.21484375 39.14648438 C-36.81043687 39.11140879 -39.40494067 39.06225844 -42 39 C-42 39.99 -42 40.98 -42 42 C-44.16997203 44.16997203 -45.15893871 45.09431063 -48 46 C-52.47071355 45.74848306 -56.97101536 45.01449232 -61 43 C-65.04899116 42.49387611 -67.83715035 43.23410097 -71.5 44.8125 C-77.78773027 47.45144134 -84.1856227 49.38670604 -91 50 C-94.25 48.5 -94.25 48.5 -97 46 C-98.770086 45.04232429 -100.56396141 44.12777358 -102.375 43.25 C-103.24898437 42.82203125 -104.12296875 42.3940625 -105.0234375 41.953125 C-105.67570312 41.63859375 -106.32796875 41.3240625 -107 41 C-107.70125 41.66 -108.4025 42.32 -109.125 43 C-114.76692717 46.79719204 -122.94843875 45.67078829 -129.359375 44.609375 C-132.33362602 43.82132559 -134.42393662 42.71737558 -137 41 C-137 39.68 -137 38.36 -137 37 C-136.34 37 -135.68 37 -135 37 C-133.68176094 33.98688215 -132.89180867 31.39019435 -132.3125 28.125 C-131.11427274 23.11336693 -128.07031392 20.01991032 -124 17 C-121.125 16 -121.125 16 -119 16 C-118.67 16.33 -118.34 16.66 -118 17 C-117.731875 16.21625 -117.46375 15.4325 -117.1875 14.625 C-116 12 -116 12 -113 10 C-99.13055437 8.86316019 -86.52645333 14.0874354 -73.95703125 19.22705078 C-71.33927328 20.26096068 -68.68152118 21.14717443 -66 22 C-65.773125 21.278125 -65.54625 20.55625 -65.3125 19.8125 C-63.34906931 15.60514852 -60.8585844 12.74343376 -56.5 11 C-52.31196472 11 -49.72491756 13.27900091 -46.83203125 16.15625 C-46.16558594 16.9296875 -45.49914063 17.703125 -44.8125 18.5 C-44.13832031 19.2734375 -43.46414063 20.046875 -42.76953125 20.84375 C-41 23 -41 23 -39 26 C-33.05516472 25.71000803 -29.94483109 23.15681968 -26 19 C-24.23725739 16.72235099 -22.6309169 14.37647891 -21 12 C-20.34 11.67 -19.68 11.34 -19 11 C-19.08765625 10.24203125 -19.1753125 9.4840625 -19.265625 8.703125 C-19 6 -19 6 -17.171875 4.234375 C-16.37265625 3.74453125 -15.5734375 3.2546875 -14.75 2.75 C-13.96109375 2.24984375 -13.1721875 1.7496875 -12.359375 1.234375 C-7.99980073 -1.04646187 -4.76951228 -1.46005478 0 0 Z " fill="#6A6A6C" transform="translate(1158,593)"/>
<path d="M0 0 C7.17630745 -1.2558538 14.27136298 3.05341837 20.4375 6.3125 C23.85303278 8.43338094 23.85303278 8.43338094 27 7 C28.9785896 6.92132265 30.95796378 6.86192956 32.9375 6.8125 C40.37363283 6.38691487 46.92317758 4.39414141 53.89428711 1.81958008 C58.33585666 0.30027107 61.11350983 -0.34872985 65.6015625 1.328125 C66.72304687 1.87984375 67.84453125 2.4315625 69 3 C69 3.66 69 4.32 69 5 C69.928125 5.28875 70.85625 5.5775 71.8125 5.875 C75 7 75 7 78 9 C78 8.34 78 7.68 78 7 C84.21052543 4.11138352 88.56446174 5.62171477 94.89453125 7.78515625 C99.92810033 9.75426315 103.91858188 11.37787283 107 16 C107.1953125 19.13671875 107.1953125 19.13671875 107.125 22.6875 C107.10695313 23.86699219 107.08890625 25.04648437 107.0703125 26.26171875 C107.04710937 27.16535156 107.02390625 28.06898438 107 29 C107.7425 29.103125 108.485 29.20625 109.25 29.3125 C112.39405543 30.09851386 113.85096101 30.55370165 116 33 C116.43561925 35.9501938 116.60477229 38.43085959 116.5625 41.375 C116.59827148 42.50808594 116.59827148 42.50808594 116.63476562 43.6640625 C116.62404098 47.75372867 116.27055415 49.60719546 113.890625 53.0625 C109.23622528 56.18220576 105.73446462 54.90979683 100.453125 53.9375 C95.92694152 52.70867191 92.61792875 50.92995572 89 48 C84.58664011 44.43423903 80.03556537 41.1107573 75.42578125 37.8046875 C73 36 73 36 71 34 C67.73006343 34.16573504 67.73006343 34.16573504 64.0625 34.8125 C62.81597656 35.00457031 61.56945313 35.19664062 60.28515625 35.39453125 C57.00986048 35.91946899 57.00986048 35.91946899 54 37 C52.32935333 36.92645063 50.66136547 36.78046008 49 36.58984375 C48.030625 36.48736328 47.06125 36.38488281 46.0625 36.27929688 C44.02039909 36.05138383 41.97872532 35.81961051 39.9375 35.58398438 C38.968125 35.48279297 37.99875 35.38160156 37 35.27734375 C36.113125 35.17671631 35.22625 35.07608887 34.3125 34.97241211 C31.71982642 34.79336255 31.71982642 34.79336255 29 37 C21.62534307 37.97736417 16.53300815 36.62710863 10.5625 32.1875 C9.2940625 31.1046875 9.2940625 31.1046875 8 30 C7.40703125 29.51015625 6.8140625 29.0203125 6.203125 28.515625 C1.27684631 24.40360725 -1.30207754 21.63026341 -2 15 C-2.49162011 3.73743017 -2.49162011 3.73743017 0 0 Z " fill="#6A6B6D" transform="translate(1374,378)"/>
<path d="M0 0 C4.39929904 0.70388785 6.8413281 3.11399551 10.171875 5.96875 C11.97368799 7.70566235 11.97368799 7.70566235 14.125 7.5 C15.36082786 5.97147606 16.59662295 4.44292556 17.83203125 2.9140625 C19.125 1.5 19.125 1.5 21.1875 0.4375 C23.125 0.5 23.125 0.5 24.8125 1.9375 C27.5813613 3.80835223 28.22958413 3.48435201 31.4296875 3.11328125 C35.60134194 3.04327157 35.60134194 3.04327157 37.76391602 4.92944336 C39.20131071 6.97344499 40.3979291 9.03941879 41.5625 11.25 C42.19188477 12.34441406 42.19188477 12.34441406 42.83398438 13.4609375 C43.97115676 15.45597678 45.06369501 17.46374223 46.125 19.5 C46.4861792 20.1906958 46.8473584 20.8813916 47.21948242 21.59301758 C48.31061771 23.89090319 48.68143993 25.9162136 49 28.4375 C49.12117187 29.27152344 49.24234375 30.10554687 49.3671875 30.96484375 C49.02042215 34.59469397 47.76527717 36.03061456 45.125 38.5 C42.03125 39.35546875 42.03125 39.35546875 38.625 39.6875 C34.57878321 40.10975428 31.70617682 40.62343344 28.125 42.5 C25.02962256 43.07588417 22.21105973 43.15894514 19.125 42.5 C16.8437132 40.69179111 15.73214789 38.98848705 14.125 36.5 C9.60365322 38.58677544 5.75005808 41.11209938 1.76171875 44.09765625 C-6.29422528 48.382225 -15.97739767 48.06091948 -24.875 48.5625 C-27.50011021 48.71820507 -30.1251142 48.87571289 -32.75 49.03515625 C-33.97976563 49.10750488 -35.20953125 49.17985352 -36.4765625 49.25439453 C-39.38566333 49.46463558 -42.23726396 49.78582914 -45.125 50.18359375 C-48.875 50.5 -48.875 50.5 -51.875 48.5 C-52.2771875 47.3553125 -52.2771875 47.3553125 -52.6875 46.1875 C-53.75583939 43.19699499 -53.75583939 43.19699499 -57 41.0625 C-59.875 38.5 -59.875 38.5 -60.5625 35.5625 C-59.65171084 31.50534829 -57.65926735 29.54326897 -54.875 26.5 C-54.359375 25.613125 -53.84375 24.72625 -53.3125 23.8125 C-50.45649058 19.21805007 -46.61800352 17.89530495 -41.6796875 16.24609375 C-39.66950033 15.55003991 -39.66950033 15.55003991 -37.875 13.5 C-34.46769214 13.18304113 -31.919933 13.48703856 -28.625 14.4375 C-24.72186815 15.54338736 -21.14028637 15.90588283 -17.109375 16.15625 C-14.875 16.5 -14.875 16.5 -11.875 18.5 C-10.85970459 20.82671865 -9.86011802 23.1603447 -8.875 25.5 C-7.33548953 27.38029239 -7.33548953 27.38029239 -5.875 28.5 C-5.58625 27.88125 -5.2975 27.2625 -5 26.625 C-3.875 24.5 -3.875 24.5 -1.875 22.5 C-2.32230469 22.17128906 -2.76960937 21.84257813 -3.23046875 21.50390625 C-7.99808383 17.75284023 -12.07444765 13.42996282 -13.875 7.5 C-12.93395369 4.81826181 -11.89654336 3.52154336 -9.875 1.5 C-6.58830456 0.86794318 -3.29510006 0.57306088 0 0 Z " fill="#6A6B6D" transform="translate(952.875,595.5)"/>
<path d="M0 0 C1.5703125 1.796875 1.5703125 1.796875 1.7421875 4.27734375 C1.60296875 5.17066406 1.46375 6.06398438 1.3203125 6.984375 C1.19140625 7.88542969 1.0625 8.78648437 0.9296875 9.71484375 C0.81109375 10.40191406 0.6925 11.08898437 0.5703125 11.796875 C2.35888672 11.88775391 2.35888672 11.88775391 4.18359375 11.98046875 C5.75001175 12.06488649 7.31641738 12.14953387 8.8828125 12.234375 C10.06133789 12.29334961 10.06133789 12.29334961 11.26367188 12.35351562 C12.02099609 12.39541016 12.77832031 12.43730469 13.55859375 12.48046875 C14.60333862 12.53545532 14.60333862 12.53545532 15.66918945 12.59155273 C17.5703125 12.796875 17.5703125 12.796875 20.5703125 13.796875 C21.10431023 16.92457601 21.5764783 19.92728161 21.7265625 23.1015625 C22.83292878 27.94703704 25.10884283 30.02066545 28.6328125 33.359375 C34.43927409 38.86266153 34.43927409 38.86266153 35.0234375 43.02734375 C34.38998899 46.89902471 33.6082715 48.25346746 30.5703125 50.796875 C22.30312705 53.51504671 12.78523175 53.68242733 4.2578125 52.234375 C1.02497921 50.5051851 -1.08494263 48.37331473 -3.5859375 45.71875 C-6.02876564 43.17241219 -8.65442226 40.90332311 -11.359375 38.640625 C-13.4296875 36.796875 -13.4296875 36.796875 -15.375 34.578125 C-18.91675182 30.75357171 -21.0774749 28.94519081 -26.3828125 28.36328125 C-29.19054004 28.34246666 -31.95889111 28.50628004 -34.7578125 28.7109375 C-39.82894983 28.82962369 -42.28045981 27.8886413 -45.9296875 24.421875 C-46.7546875 23.555625 -47.5796875 22.689375 -48.4296875 21.796875 C-49.3165625 21.095625 -50.2034375 20.394375 -51.1171875 19.671875 C-53.4296875 17.796875 -53.4296875 17.796875 -55.4296875 14.796875 C-55.5546875 12.296875 -55.5546875 12.296875 -54.4296875 9.796875 C-52.57159941 8.79942154 -50.74928469 8.17399727 -48.73046875 7.5703125 C-46.2717156 6.81870657 -46.2717156 6.81870657 -43.58203125 5.23828125 C-40.04603028 3.62144809 -37.54665376 3.43373974 -33.6796875 3.359375 C-29.08075136 3.13808728 -25.59162465 2.70509358 -21.4296875 0.734375 C-15.10338224 -2.14503968 -6.37584951 -3.15717307 0 0 Z " fill="#6A6B6D" transform="translate(1039.4296875,646.203125)"/>
<path d="M0 0 C7.63065399 3.0522616 13.08802564 13.65778017 16.1875 20.875 C16.44829749 23.22217737 16.63143716 25.57885636 16.75 27.9375 C17.6455322 36.63849514 21.48154204 43.29261195 28.1875 48.875 C33.54617227 52.47484049 39.31010703 55.23630965 45.1875 57.875 C44.87890625 60.23046875 44.87890625 60.23046875 44.1875 62.875 C41.125 65.1875 41.125 65.1875 38.1875 66.875 C38.5175 67.679375 38.8475 68.48375 39.1875 69.3125 C40.39467135 73.61304795 40.36471353 77.44466181 40.1875 81.875 C35.67057353 82.31567575 33.10847959 81.527051 29.28515625 79.140625 C26.75412785 77.61352407 24.14874663 76.31228646 21.5 75 C19.96666016 74.23816406 19.96666016 74.23816406 18.40234375 73.4609375 C16.20895613 72.37890181 14.01355104 71.30094848 11.81640625 70.2265625 C10.20572266 69.43378906 10.20572266 69.43378906 8.5625 68.625 C7.58023438 68.14546875 6.59796875 67.6659375 5.5859375 67.171875 C3.1875 65.875 3.1875 65.875 1.1875 63.875 C0.9921875 60.6171875 0.9921875 60.6171875 1.0625 56.75 C1.08054687 55.46867187 1.09859375 54.18734375 1.1171875 52.8671875 C1.14039063 51.87976563 1.16359375 50.89234375 1.1875 49.875 C0.01767578 49.92140625 0.01767578 49.92140625 -1.17578125 49.96875 C-3.8125 49.875 -3.8125 49.875 -6 48.375 C-8.46758076 44.97144034 -8.99008514 41.98707431 -9.8125 37.875 C-10.68132812 37.83761719 -11.55015625 37.80023438 -12.4453125 37.76171875 C-20.28707238 37.31437003 -25.24770033 36.25153311 -31.8125 31.875 C-31.72526622 30.10325181 -31.61708345 28.33252623 -31.5 26.5625 C-31.44199219 25.57636719 -31.38398438 24.59023438 -31.32421875 23.57421875 C-30.74242139 20.50534873 -30.30662189 19.68446098 -27.8125 17.875 C-26.05061435 16.98042029 -24.2544877 16.15157556 -22.4375 15.375 C-19.51655594 14.11971826 -16.82747849 12.88431802 -14.125 11.203125 C-11.8125 9.875 -11.8125 9.875 -9.1875 10.125 C-7.39072473 10.69240272 -5.60004371 11.2791521 -3.8125 11.875 C-3.8125 8.245 -3.8125 4.615 -3.8125 0.875 C-1.8125 -0.125 -1.8125 -0.125 0 0 Z " fill="#6A6A6C" transform="translate(445.8125,308.125)"/>
<path d="M0 0 C4.53008795 2.67057587 7.39774829 6.84081364 10.5390625 10.96875 C12.73952458 13.61241469 15.05346535 15.5107735 17.75 17.625 C19.90502531 20.85753796 20.21856135 21.87650923 19.75 25.625 C17.24273716 29.08266933 13.67157836 29.91829735 9.75 31.25 C7.89375 31.88808594 7.89375 31.88808594 6 32.5390625 C3.91690739 33.23509585 1.8335939 33.9304687 -0.25 34.625 C-1.36680706 37.47479639 -1.36680706 37.47479639 -2.25 40.625 C-3.6279417 43.93206008 -4.11743394 44.53662262 -7.25 46.625 C-11.19182186 47.20052771 -12.75402957 46.97648605 -16.0390625 44.6484375 C-16.97492188 43.77445312 -17.91078125 42.90046875 -18.875 42 C-23.75141522 37.62130377 -28.56573924 34.76144371 -34.54296875 31.99609375 C-39.52032232 29.47509649 -43.1699738 26.2450393 -46.25 21.625 C-46.60913751 19.6007704 -46.75102988 17.6114056 -46.90625 15.5625 C-47.1730571 13.30619395 -47.1730571 13.30619395 -49.25 10.625 C-49.25 6.68118419 -48.55249883 4.99023145 -46.02734375 1.94140625 C-41.10668746 -1.965181 -34.74761025 -0.81310059 -28.8125 -0.5625 C-19.18567252 -0.24762789 -8.68361358 -3.67383652 0 0 Z " fill="#6A6B6D" transform="translate(1330.25,390.375)"/>
<path d="M0 0 C3.90859119 0.67389503 5.36014366 1.621599 7.69140625 4.82421875 C9.16600212 7.66852291 9.43539486 10.46491429 9.625 13.625 C10.511875 13.893125 11.39875 14.16125 12.3125 14.4375 C15.4159666 15.5500635 17.93610685 16.72695778 20.625 18.625 C20.625 19.285 20.625 19.945 20.625 20.625 C21.285 20.625 21.945 20.625 22.625 20.625 C24.02212274 22.58097184 25.34427629 24.5909094 26.625 26.625 C27.388125 27.594375 28.15125 28.56375 28.9375 29.5625 C31.12210027 33.52714493 30.85693219 35.31323735 29.625 39.625 C26.30316645 46.2686671 20.28859028 51.08629208 13.5 53.9375 C8.94016328 53.44186557 6.61231732 50.96376642 3.625 47.625 C0.16232637 43.18264309 -2.45626421 38.54139838 -4.8125 33.4375 C-7.15829675 28.57242315 -10.03930716 25.75467253 -14.375 22.625 C-18.32717968 19.68384303 -21.04169803 17.02237678 -23.375 12.625 C-23.125 9.75 -23.125 9.75 -22.375 7.625 C-18.57931539 6.64701279 -15.8744001 6.69846931 -12.0625 7.5625 C-11.17949219 7.75714844 -10.29648438 7.95179688 -9.38671875 8.15234375 C-8.39091797 8.38630859 -8.39091797 8.38630859 -7.375 8.625 C-7.16230469 7.70460937 -7.16230469 7.70460937 -6.9453125 6.765625 C-5.77589827 2.37631679 -4.55115326 0.84280616 0 0 Z " fill="#6A6A6C" transform="translate(97.375,174.375)"/>
<path d="M0 0 C0.69480469 -0.02449219 1.38960937 -0.04898437 2.10546875 -0.07421875 C7.28426425 -0.10347748 10.12465609 1.16632835 14.125 4.375 C17.45329805 7.70329805 17.75234111 10.75402974 18.125 15.375 C18.21265625 16.13039063 18.3003125 16.88578125 18.390625 17.6640625 C18.91793186 25.21413802 16.0767973 30.11558384 12.125 36.375 C11.61582031 37.28636719 11.10664062 38.19773437 10.58203125 39.13671875 C9.125 41.375 9.125 41.375 6.625 42.375 C4.125 42.375 4.125 42.375 2.4375 41.25 C0.91157165 39.07010236 0.07884087 36.85092736 -0.875 34.375 C-1.53886719 34.71273437 -2.20273437 35.05046875 -2.88671875 35.3984375 C-3.76972656 35.84445312 -4.65273438 36.29046875 -5.5625 36.75 C-6.43261719 37.19085938 -7.30273438 37.63171875 -8.19921875 38.0859375 C-16.13907244 41.91097651 -16.13907244 41.91097651 -20.875 40.375 C-21.535 39.715 -22.195 39.055 -22.875 38.375 C-22.66796875 36.51953125 -22.66796875 36.51953125 -22.0625 34.1875 C-21.00297045 29.68937456 -20.80181623 25.5538551 -20.75 20.9375 C-20.32437107 13.01919571 -17.49437779 7.9109733 -11.875 2.375 C-8.26941245 -0.21179019 -4.28183438 0.00785658 0 0 Z " fill="#6A6A6C" transform="translate(534.875,353.625)"/>
<path d="M0 0 C5.86759277 4.45041994 9.0987619 11.42505792 12 18 C12.52980469 19.19109375 13.05960938 20.3821875 13.60546875 21.609375 C16.67711815 28.61501831 19.13541715 34.35680307 19.25 42.0625 C19.27578125 43.10535156 19.3015625 44.14820313 19.328125 45.22265625 C19 48 19 48 17.796875 49.80859375 C13.99826575 52.32723684 10.28788804 52.16842471 5.9375 51.375 C2.50270092 50.61057884 1.20399231 50.18830059 -1.4375 47.75 C-6 39.72 -6 39.72 -6 37 C-6.66 37 -7.32 37 -8 37 C-11.90230212 33.83569802 -13.79148039 30.39524152 -14.53125 25.4453125 C-14.76005061 15.96915384 -13.4566762 9.34300344 -7.5625 1.9375 C-4.59729774 -0.3044822 -3.61418742 -0.46901669 0 0 Z " fill="#6A6A6C" transform="translate(159,282)"/>
<path d="M0 0 C6.19216102 1.33556414 9.65099925 7.06320821 13.625 11.6875 C18.3424812 17.13155754 23.36172144 21.72229925 29.625 25.3125 C33.06312572 27.33769734 33.06312572 27.33769734 34.1875 30.5 C34.1875 32.6875 34.1875 32.6875 32.375 34.6875 C25.53092209 38.9818234 16.63454721 36.63470945 9.01171875 35.41796875 C-0.8741183 32.86105101 -10.23515324 24.14613291 -15.8125 15.6875 C-16.46484375 13.48828125 -16.46484375 13.48828125 -16.8125 11.6875 C-13.52665922 8.84972842 -10.68643894 6.62446947 -6.8125 4.6875 C-6.19375 3.98625 -5.575 3.285 -4.9375 2.5625 C-2.8125 0.6875 -2.8125 0.6875 0 0 Z " fill="#696A6B" transform="translate(31.8125,110.3125)"/>
</svg>
